<svg xmlns="http://www.w3.org/2000/svg" enable-background="new 0 0 100 100" id="laboratory-flask"
	viewBox="12.5 8.51 75 82.99">
	<path
		d="M61.5,71c0,1.38-1.12,2.5-2.5,2.5s-2.5-1.12-2.5-2.5s1.12-2.5,2.5-2.5S61.5,69.62,61.5,71z M45.5,76 	c0,3.03-2.47,5.5-5.5,5.5s-5.5-2.47-5.5-5.5s2.47-5.5,5.5-5.5S45.5,72.97,45.5,76z M42.5,76c0-1.38-1.12-2.5-2.5-2.5 	s-2.5,1.12-2.5,2.5s1.12,2.5,2.5,2.5S42.5,77.38,42.5,76z M87.5,82.29c0,5.08-4.13,9.21-9.21,9.21H21.71 	c-5.08,0-9.21-4.13-9.21-9.21c0-1.79,0.51-3.52,1.49-5.02l23.63-36.35c0.58-0.89,0.88-1.91,0.88-2.97V17.46 	c-2.18-0.3-3.88-2.05-3.99-4.22c-0.06-1.25,0.38-2.43,1.23-3.33c0.84-0.89,2.03-1.4,3.26-1.4h21.86c2.42,0,4.45,1.82,4.62,4.15 	c0.1,1.33-0.38,2.62-1.32,3.54c-0.71,0.72-1.65,1.17-2.67,1.28v20.47c0,1.06,0.3,2.08,0.88,2.97c0,0,0,0,0,0l23.63,36.36 	C86.99,78.76,87.5,80.5,87.5,82.29z M30.13,57.93c3.03-1.09,6.66-1.59,10.62-1.38c3.51,0.19,6.95,0.84,10.28,1.46 	c1.83,0.34,3.71,0.7,5.57,0.97c5.57,0.81,10.01,0.6,13.54-0.63l-10.27-15.8v0c-0.89-1.37-1.37-2.97-1.37-4.61V16 	c0-0.83,0.67-1.5,1.5-1.5h1c0.4,0,0.78-0.15,1.05-0.43c0.33-0.32,0.48-0.74,0.45-1.19c-0.06-0.76-0.79-1.37-1.63-1.37H39 	c-0.42,0-0.8,0.17-1.09,0.47c-0.29,0.3-0.43,0.7-0.41,1.12c0.04,0.78,0.79,1.42,1.66,1.42H40c0.83,0,1.5,0.67,1.5,1.5v4.5H46 	c0.83,0,1.5,0.67,1.5,1.5s-0.67,1.5-1.5,1.5h-4.5v7H44c0.83,0,1.5,0.67,1.5,1.5s-0.67,1.5-1.5,1.5h-2.5v4.44 	c0,1.64-0.47,3.23-1.37,4.61L30.13,57.93z M84.5,82.29c0-1.21-0.35-2.38-1-3.39L71.81,60.92c-4.11,1.62-9.23,1.97-15.64,1.04 	c-1.92-0.28-3.84-0.64-5.69-0.99c-3.23-0.61-6.57-1.24-9.88-1.42c-5.79-0.31-10.74,0.99-13.58,3.57c-0.12,0.11-0.26,0.18-0.4,0.25 	L16.5,78.9c-0.66,1.01-1,2.18-1,3.39c0,3.43,2.79,6.21,6.21,6.21h56.57C81.71,88.5,84.5,85.71,84.5,82.29z">
	</path>
</svg>