<svg xmlns="http://www.w3.org/2000/svg" id="paw-grooming" viewBox="0 -0.01 64 64.01">
    <path
        d="M39 31c-2.75684 0-5-2.69141-5-6s2.24316-6 5-6 5 2.69141 5 6S41.75684 31 39 31zm0-10c-1.6543 0-3 1.79395-3 4s1.3457 4 3 4 3-1.79395 3-4S40.6543 21 39 21zM30 22.00586c-2.75684 0-5-2.69141-5-6s2.24316-6 5-6 5 2.69141 5 6S32.75684 22.00586 30 22.00586zm0-10c-1.6543 0-3 1.79394-3 4s1.3457 4 3 4 3-1.79395 3-4S31.6543 12.00586 30 12.00586zM9 31c-2.75684 0-5-2.69141-5-6s2.24316-6 5-6 5 2.69141 5 6S11.75684 31 9 31zM9 21C7.3457 21 6 22.794 6 25s1.3457 4 3 4 3-1.79395 3-4S10.6543 21 9 21z">
    </path>
    <path
        d="M39,64a.99943.99943,0,0,1-1-1V55a.98.98,0,0,1,.03809-.27148l7.64843-27.082a.6912.6912,0,0,1,.01563-.07812A11.41649,11.41649,0,0,0,46,24.99316C46,20.03418,42.85938,16,39,16a5.3132,5.3132,0,0,0-.876.08105.99891.99891,0,0,1-1.1582-.916C36.63672,10.58984,33.57715,7.00586,30,7.00586a6.44661,6.44661,0,0,0-5.18262,2.97461,1.03763,1.03763,0,0,1-1.63476,0A6.44661,6.44661,0,0,0,18,7.00586c-3.57715,0-6.63672,3.584-6.96582,8.15918a.99891.99891,0,0,1-1.1582.916A5.3132,5.3132,0,0,0,9,16c-3.85937,0-7,4.03418-7,8.99316a11.41649,11.41649,0,0,0,.29785,2.5752c.00586.02246.00977.04492.01367.06738L9.9668,56.74609A.96925.96925,0,0,1,10,57v6a1,1,0,0,1-2,0V57.12891L.35254,28.04883a.94225.94225,0,0,1-.02539-.12695A13.402,13.402,0,0,1,0,24.99316C0,18.93164,4.03711,14,9,14c.0498,0,.10059.001.15137.002C9.919,8.80664,13.58594,5.00586,18,5.00586a8.14068,8.14068,0,0,1,6,2.80371,8.14069,8.14069,0,0,1,6-2.80371c4.41406,0,8.081,3.80078,8.84863,8.99609C38.89941,14.001,38.9502,14,39,14c4.96289,0,9,4.93164,9,10.99316a13.37681,13.37681,0,0,1-.33008,2.93946c-.00488.0332-.01074.0664-.01855.09961l-.0293.12011c-.001.00391-.02441.09961-.02539.1045L40,55.13867V63A.99943.99943,0,0,1,39,64Z">
    </path>
    <path
        d="M18 22.00586c-2.75684 0-5-2.69141-5-6s2.24316-6 5-6 5 2.69141 5 6S20.75684 22.00586 18 22.00586zm0-10c-1.6543 0-3 1.79394-3 4s1.3457 4 3 4 3-1.79395 3-4S19.6543 12.00586 18 12.00586zM25.626 45H22.374c-3.52832 0-6.293-1.26172-7.58593-3.46094-1.1836-2.01367-1.03418-4.56054.41894-7.17187l2.82813-5.08106C19.57422 26.52246 21.69238 25 24 25s4.42578 1.52246 5.96484 4.28613L32.793 34.36719c1.45312 2.61133 1.60254 5.1582.41894 7.17187C31.919 43.73828 29.1543 45 25.626 45zM24 27c-1.5498 0-3.04687 1.15723-4.2168 3.25879l-2.82812 5.08105c-1.0957 1.9668-1.25195 3.8086-.44238 5.18555C17.43652 42.09863 19.57324 43 22.374 43h3.252c2.80078 0 4.9375-.90137 5.86132-2.47461.80958-1.377.65333-3.21875-.44238-5.18555h0L28.2168 30.25879C27.04688 28.15723 25.5498 27 24 27zM8.001 16a.9988.9988 0 01-.78223-.375l-4-5a1.00049 1.00049 0 111.5625-1.25l4 5A.99991.99991 0 018.001 16z">
    </path>
    <path
        d="M4 18.19434a.99943.99943 0 01-1-1V10a1 1 0 012 0v7.19434A.99943.99943 0 014 18.19434zM20 7.32324a1.00125 1.00125 0 01-.93652-.64844l-2-5.32324a1.00033 1.00033 0 111.873-.70312l2 5.32324A.99951.99951 0 0120 7.32324z">
    </path>
    <path
        d="M16 7.32324a.99951.99951 0 01-.93652-1.35156l2-5.32324a1.00033 1.00033 0 011.873.70312l-2 5.32324A1.00125 1.00125 0 0116 7.32324zM39.999 16a.99991.99991 0 01-.78027-1.625l4-5a1.00049 1.00049 0 011.5625 1.25l-4 5A1.00183 1.00183 0 0139.999 16z">
    </path>
    <path
        d="M44 18.19434a.99943.99943 0 01-1-1V10a1 1 0 012 0v7.19434A.99943.99943 0 0144 18.19434zM28 7.32324a.99951.99951 0 01-.93652-1.35156l2-5.32324a1.00033 1.00033 0 011.873.70312l-2 5.32324A1.00125 1.00125 0 0128 7.32324z">
    </path>
    <path
        d="M32 7.32324a1.00125 1.00125 0 01-.93652-.64844l-2-5.32324a1.00033 1.00033 0 011.873-.70312l2 5.32324A.99951.99951 0 0132 7.32324zM49.5 64A5.5 5.5 0 1155 58.5 5.50685 5.50685 0 0149.5 64zm0-9A3.5 3.5 0 1053 58.5 3.50424 3.50424 0 0049.5 55z">
    </path>
    <path
        d="M49.5 61A2.5 2.5 0 1152 58.5 2.50231 2.50231 0 0149.5 61zm0-3a.5.5 0 10.5.5A.501.501 0 0049.5 58zM58.5 64A5.5 5.5 0 1164 58.5 5.50685 5.50685 0 0158.5 64zm0-9A3.5 3.5 0 1062 58.5 3.50424 3.50424 0 0058.5 55z">
    </path>
    <path
        d="M58.5 61A2.5 2.5 0 1161 58.5 2.50231 2.50231 0 0158.5 61zm0-3a.5.5 0 10.5.5A.501.501 0 0058.5 58zM53.999 59.5h0a1.00005 1.00005 0 01-1-1L53 38.999a1.00005 1.00005 0 011-1h0a1.00006 1.00006 0 011 1L54.999 58.5A1.00005 1.00005 0 0153.999 59.5zM50.999 55.28125a.99943.99943 0 01-1-1V20a1 1 0 012 0V54.28125A.99942.99942 0 0150.999 55.28125zM56.999 55.28125a.99943.99943 0 01-1-1V20a1 1 0 012 0V54.28125A.99942.99942 0 0156.999 55.28125z">
    </path>
    <path
        d="M56.999 20.89648h0a1.00005 1.00005 0 01-1-1A4.47722 4.47722 0 0054 16.15039a4.47747 4.47747 0 00-2 3.74609 1 1 0 01-2 0 6.57145 6.57145 0 013.49609-5.7998 1.00009 1.00009 0 011.00782 0 6.56892 6.56892 0 013.49511 5.7998A1 1 0 0156.999 20.89648zM53.99707 39.999H50.999a1 1 0 010-2h2.998a1 1 0 110 2zM54.01855 37a1 1 0 01-.00976-2h.00976a1 1 0 110 2z">
    </path>
</svg>