<svg xmlns="http://www.w3.org/2000/svg" width="100" height="100" viewBox="0 0 100 100" id="pet-vaccine">
    <path
        d="M61.853 69.339c-.512.052-1.718.108-1.93-.541-.076-.207-.142-.362-.241-.648-1.5-4.21-3.48-8.047-9.826-7.533a9.439 9.439 0 00-1.012-5.112 1.5 1.5 0 00-1.7-.685c-.254.072-2.615.792-6.869 4.166A24.54 24.54 0 0033.6 67.22c-1.254 2.486-1.14 7.029-.916 11.469l.045.941a1.5 1.5 0 103-.135l-.046-.957c-.141-2.789-.4-7.982.6-9.967 1.811-4.177 6.939-8.583 10.423-10.3.347 1.481.422 4.12-1.962 7.15a1.5 1.5 0 00.251 2.106c2.16 1.481 3.6-2.693 4.19-3.891a22.861 22.861 0 013.337.089c2.774.388 3.848 4.232 4.569 6.058.606 1.771 2.275 2.69 4.607 2.574.758 3.187.11 6.812-3.468 7.148a11.143 11.143 0 00-9.313 6.434 1.5 1.5 0 002.758 1.181A8.126 8.126 0 0158.41 82.5a6.854 6.854 0 006.213-5.031C65.118 75.44 65.64 69.064 61.853 69.339zM64.037 50.315a1.5 1.5 0 00-1.176 1.766c.735 3.664 2.1 10.483.453 14.968a1.5 1.5 0 002.816 1.035c1.941-5.279.466-12.639-.327-16.593A1.5 1.5 0 0064.037 50.315z">
    </path>
    <path
        d="M93.368 50.107c-3.271-.871-8.866-2.831-10.76-4.578-.214-1.615-1.12-6.178-4.618-7.61C62.582 31.5 51.786 37.772 48.341 51.8a1.5 1.5 0 002.9.758 24.583 24.583 0 014.6-9.49c5.921-7.122 15.7-4.542 21.009-2.371 2.04.836 2.729 4.332 2.821 5.606a1.5 1.5 0 00.35.863c2.188 2.6 8.7 4.722 11.436 5.524a2.521 2.521 0 01-.219.787h0a1.5 1.5 0 00-.279.946 8.893 8.893 0 01-4.5 8.257H76.522A4.759 4.759 0 0072.111 65.7a22.659 22.659 0 001.021 18.037 1.5 1.5 0 102.619-1.463 19.817 19.817 0 01-.84-15.5 1.737 1.737 0 011.611-1.1h10.31c.891-.036 7.133-3.08 7.142-10.973C94.3 54.094 95.291 50.563 93.368 50.107zM19.191 61.769l-4.5 4.5-3.139-3.138 4.5-4.5a1.5 1.5 0 00-2.121-2.121l-4.5 4.505L8.059 59.646a1.5 1.5 0 00-2.121 2.122l2.427 2.427h0l7.688 7.688a1.5 1.5 0 002.121-2.121L16.808 68.4l4.5-4.5A1.5 1.5 0 0019.191 61.769zM27.26 62.8L50.809 39.248a3.881 3.881 0 00.16-5.309l5.114-6a2.486 2.486 0 00-.5-3.586l9.826-9.826a1.5 1.5 0 10-2.121-2.121l-9.826 9.825a2.489 2.489 0 00-3.587-.5l-6 5.114a3.884 3.884 0 00-5.308.16L15.023 50.561l-1.434-1.435a1.5 1.5 0 10-2.121 2.121L26.574 66.354A1.5 1.5 0 0028.7 64.232zM51.382 24.4l2.041 2.042-4.566 5.353-2.829-2.828zM25.139 60.676l-7.994-7.994L21.6 48.228l3.39 3.39A1.5 1.5 0 1027.11 49.5l-3.39-3.39 4.454-4.455 3.39 3.391a1.5 1.5 0 102.122-2.121L30.3 39.531l4.454-4.454 3.391 3.391a1.5 1.5 0 002.121-2.121L36.87 32.956l3.823-3.823a.893.893 0 011.262 0l6.733 6.733a.9.9 0 010 1.261z">
    </path>
</svg>