<svg xmlns="http://www.w3.org/2000/svg" enable-background="new 0 0 512 512" id="pet" viewBox="16.68 6.62 478.58 498.88">
    <path
        d="M171.14 475.46c-87.33 0-106.89-10.79-113.86-19.12-8.76-10.37-17.56-30.7-15.93-56.61 1.27-20.12 9.55-50.41 41.81-80.39 21.53-20 41.16-37.41 61.79-54.77a8.05 8.05 0 0110.37 12.32c-20.43 17.18-39.87 34.41-61.2 54.24-28.37 26.37-35.62 52.41-36.7 69.61-1.34 21.17 5.72 37.6 12.18 45.24 2.9 3.46 19.79 14.56 116.74 13.28 2.06 0 3.61-.05 4.57-.05 9.14 0 69.21-3.09 90.74-4.22-.34-2.63-1.06-5.31-2.46-6.95-.66-.78-1.75-1.69-4.31-1.8-17.62-.76-42.67-3.71-43.73-3.84a8.06 8.06 0 01-7-9.13c.29-2.08 6.41-51.63-47.18-63.54A8 8 0 11180.44 354c35.58 7.9 50 29.74 55.76 46.66a83.67 83.67 0 014.33 26.57c8.84.95 23.76 2.42 35 2.91a21.42 21.42 0 0115.94 7.52c8 9.53 6.4 24.32 6.18 26a8 8 0 01-7.55 7c-3.58.18-87.7 4.64-99.24 4.64-.91 0-2.39 0-4.35.05Q178.52 475.47 171.14 475.46zm118.58-12.83h0zM365.65 466.12H313.72a8 8 0 01-7.83-6.21l-21-89.33-23.55-33.85a8.05 8.05 0 0113.22-9.19L299 362.65a8.21 8.21 0 011.23 2.75L320.1 450h28.5l-1.07-.64c-5.78-3.44-12.34-7.33-15.57-14.84-3.47-8.05-2-21.63 1.17-46.92 2-16.11 4.28-34.36 4.94-53.11.44-12.71-2.49-30.68-5.08-46.54-1.15-7.08-2.24-13.77-3-19.86a8 8 0 0116-2.07c.76 5.83 1.83 12.39 3 19.34 2.71 16.59 5.77 35.4 5.27 49.7-.68 19.46-3 38.09-5 54.53-2 16-4.26 34.15-2.36 38.56 1.17 2.71 5 5 9 7.38 6.74 4 16 9.5 17.84 21.27a8 8 0 01-8 9.3z">
    </path>
    <path
        d="M234 423.13q-1.47 0-3-.06a8 8 0 11.74-16.08c14.95.71 28.17-5.89 39.3-19.56a85.9 85.9 0 0013-22.37 8 8 0 0115.17 5.37C298.52 372.62 280.16 423.13 234 423.13zM167.57 505.5c-23.91 0-52.44-1.19-73.94-5.75C73.06 495.39 58.3 482.55 51 462.62a79 79 0 01-4.77-28.31 8 8 0 0116.08.73h0C62.19 436.73 61 476.37 97 484c41.78 8.86 115.26 4.08 116 4A8 8 0 11214 504.1C212.46 504.2 192.54 505.5 167.57 505.5zM451.29 350.63a8.16 8.16 0 01-2.4-.36c-26.64-8.33-41.54-38.83-47.39-53.79-10.36 3.47-30.09 8.1-59.54 6.89a8 8 0 11.66-16.08c39.9 1.63 59.69-8.38 59.88-8.48A8 8 0 01414 283.63c.13.42 12.57 41.66 38.48 50.88 7.68-.31 18.43-2.95 19.68-7.41 2.32-8.48.36-36.35-1.43-51.91a8.09 8.09 0 01.59-4.07c4.1-9.65 8.33-23 7.85-26.65-1.2-8.67-9.14-52.47-46.63-56.55l-.67-.1c-.57-.11-57.94-10.89-124.29 2.1a8 8 0 01-3.09-15.79c67.62-13.25 124.72-3.19 130.11-2.18 49.1 5.58 59 59.59 60.52 70.38 1.17 9-5.15 25.77-8.17 33.12 1 9.44 4.27 43 .72 55.95-5.21 18.59-33.2 19.22-36.38 19.23z">
    </path>
    <path
        d="M402.57 267.07a13.75 13.75 0 01-10.63-4.42c-5.39-6-4.15-15.07-2.83-24.7.86-6.22 1.83-13.28.57-17.49-6.38-21.4-.52-37.12 17.94-48.07a8 8 0 018.21 13.84c-12 7.1-15 15.4-10.73 29.63 2.25 7.55 1 16.44 0 24.28a77.3 77.3 0 00-1 10.77c26.26-1.43 36-18 41.25-27 1.73-2.95 3-5.09 4.84-6.64a8 8 0 0110.76 12c-.37.52-1.11 1.78-1.71 2.82-5.93 10.12-19.81 33.81-56 35zm57.89-37.46h0zM177.68 192.16a7.83 7.83 0 01-2.19-.31 80.75 80.75 0 01-59.18-73.78c-.94-21.18 7.51-37.8 22.07-43.35 11.16-4.27 21.12-4.15 29.62.35a31.8 31.8 0 019.68 8 32 32 0 019.69-8c8.49-4.5 18.46-4.61 29.62-.35 14.54 5.55 23.14 21.87 22.46 42.61-.93 28.24-19.65 62.22-59.4 74.47A8 8 0 01177.68 192.16zm-24-104.43a27.42 27.42 0 00-9.6 2c-7.74 3-12.34 13.79-11.73 27.61a64.63 64.63 0 0045.2 58.32c30.6-10.47 45-36.89 45.77-58.88.45-13.45-4.31-24.07-12.11-27-6.64-2.53-12.14-2.68-16.35-.45-6.9 3.65-9.36 12.91-9.38 13a8.05 8.05 0 01-15.67 0s-2.42-9.37-9.46-13A14.2 14.2 0 00153.72 87.73z">
    </path>
    <path
        d="M96.1,188.15a8.47,8.47,0,0,1-1-.06,8,8,0,0,1-7-6.71l-6.74-41.93-3.65,7.85a8.06,8.06,0,0,1-7.3,4.66H24.73a8.05,8.05,0,0,1,0-16.1h40.6l12.56-27A8,8,0,0,1,93.13,111l6.51,40.46,4.9-11.43a8,8,0,0,1,7.39-4.88h40.53l12-11.37a8.06,8.06,0,0,1,12.4,1.64l9,14.67,5.6-5.6a8.05,8.05,0,0,1,5.69-2.36h47.12l10.26-28.6a8,8,0,0,1,7.57-5.33h0a8.05,8.05,0,0,1,7.58,5.33L282.42,139l7-9.6a8,8,0,0,1,6.5-3.31h32.74a8,8,0,0,1,0,16.1H300l-13.53,18.56a8.05,8.05,0,0,1-14.08-2L262.1,130l-4.6,12.83a8,8,0,0,1-7.57,5.33H200.48L190,158.65a8.06,8.06,0,0,1-12.56-1.48l-9.14-14.92L161.21,149a8.06,8.06,0,0,1-5.54,2.21H117.24L103.5,183.28A8.05,8.05,0,0,1,96.1,188.15Z">
    </path>
    <path
        d="M277.72,305.37a8,8,0,0,1-4.7-1.52l-42.13-30.31a137,137,0,0,1-49.28,9.08c-76.12,0-138-61.93-138-138s61.93-138,138.05-138,138,61.93,138,138a137.62,137.62,0,0,1-46.21,103.06l12.08,47.72a8.06,8.06,0,0,1-7.8,10Zm-45.72-49a8,8,0,0,1,4.7,1.52l27.8,20-7.88-31.15a8,8,0,0,1,2.67-8.18A121.52,121.52,0,1,0,228.88,257,8.05,8.05,0,0,1,232,256.38Z">
    </path>
</svg>