<svg xmlns="http://www.w3.org/2000/svg" enable-background="new 0 0 512 512" id="pet-shop"
	viewBox="111.91 78.19 288.19 355.62">
	<path
		d="M394.094,119.856h-53.303c2.747-4.267,4.277-9.308,4.277-14.638c0-14.904-12.126-27.03-27.03-27.03 	c-12.732,0-23.317,8.608-26.229,20.447h-71.617c-2.912-11.839-13.497-20.447-26.229-20.447c-14.904,0-27.03,12.126-27.03,27.03 	c0,5.33,1.53,10.371,4.277,14.638h-53.303c-3.313,0-6,2.687-6,6v301.955c0,3.314,2.687,6,6,6h276.188c3.313,0,6-2.686,6-6V125.856 	C400.094,122.543,397.407,119.856,394.094,119.856z M188.922,119.856c-0.456-0.454-0.98-0.848-1.577-1.141 	c-5.189-2.552-8.413-7.723-8.413-13.497c0-8.287,6.742-15.03,15.03-15.03c8.197,0,14.794,6.418,15.018,14.61 	c0.089,3.249,2.748,5.837,5.998,5.837h82.045c3.25,0,5.909-2.588,5.998-5.837c0.224-8.192,6.82-14.61,15.018-14.61 	c8.288,0,15.03,6.743,15.03,15.03c0,5.774-3.224,10.945-8.413,13.497c-0.597,0.293-1.12,0.687-1.576,1.141 	c-1.112,1.108-1.776,2.622-1.776,4.244c0,2.287,1.301,4.375,3.353,5.385c1.297,0.637,2.471,1.438,3.503,2.371 	c3.097,2.802,4.91,6.794,4.91,11.125c0,8.288-6.742,15.03-15.03,15.03c-8.226,0-14.967-6.692-15.026-14.918 	c-0.024-3.297-2.703-5.957-6-5.957h-82.023c-3.297,0-5.976,2.66-6,5.957c-0.06,8.226-6.801,14.918-15.026,14.918 	c-8.288,0-15.03-6.742-15.03-15.03c0-4.331,1.814-8.323,4.911-11.125c1.031-0.933,2.206-1.734,3.502-2.371 	c2.052-1.01,3.353-3.098,3.353-5.385C190.697,122.479,190.034,120.965,188.922,119.856z M123.906,131.856h45.399 	c-1.538,3.423-2.374,7.194-2.374,11.125c0,14.905,12.126,27.03,27.03,27.03c12.748,0,23.514-8.937,26.316-20.875h71.443 	c2.803,11.938,13.568,20.875,26.316,20.875c14.904,0,27.03-12.125,27.03-27.03c0-3.931-0.836-7.702-2.373-11.125h45.398v66.335 	h-34.121h-11.945h-34.055h-11.945h-34.055h-11.945h-34.055h-11.945h-34.055h-11.945h-34.121V131.856z M387.973,210.191v39.184 	c0,9.359-7.614,16.973-16.973,16.973s-16.973-7.613-16.973-16.973v-39.184H387.973z M341.973,210.191v39.184 	c0,9.359-7.614,16.973-16.973,16.973s-16.973-7.613-16.973-16.973v-39.184H341.973z M295.973,210.191v39.184 	c0,9.359-7.614,16.973-16.973,16.973s-16.973-7.613-16.973-16.973v-39.184H295.973z M249.973,210.191v39.184 	c0,9.359-7.614,16.973-16.973,16.973s-16.973-7.613-16.973-16.973v-39.184H249.973z M203.973,210.191v39.184 	c0,9.359-7.614,16.973-16.973,16.973s-16.973-7.613-16.973-16.973v-39.184H203.973z M157.973,210.191v39.184 	c0,9.359-7.614,16.973-16.973,16.973s-16.973-7.613-16.973-16.973v-39.184H157.973z M230.468,421.61h-49.997v-82.256h49.997V421.61z 	 M242.468,421.812v-88.457c0-3.313-2.687-6-6-6h-61.997c-3.313,0-6,2.687-6,6v88.457h-44.564V272.748 	c4.796,3.517,10.705,5.6,17.094,5.6c9.364,0,17.7-4.469,23-11.383c5.3,6.914,13.637,11.383,23,11.383c9.364,0,17.7-4.469,23-11.383 	c5.3,6.914,13.637,11.383,23,11.383c9.364,0,17.7-4.469,23-11.383c5.3,6.914,13.637,11.383,23,11.383c9.364,0,17.7-4.469,23-11.383 	c5.3,6.914,13.637,11.383,23,11.383c9.364,0,17.7-4.469,23-11.383c5.3,6.914,13.637,11.383,23,11.383 	c6.39,0,12.299-2.083,17.094-5.6v26.121H281.806v89.27h106.288v33.673H242.468z M388.043,310.869v65.27h-94.237v-65.27H388.043z">
	</path>
</svg>