<svg xmlns="http://www.w3.org/2000/svg" enable-background="new 0 0 512 512" id="pet-hospital"
	viewBox="85.43 91.06 341.13 329.89">
	<path
		d="M365.832 281.168c-16.652-11.68-31.654-27.714-44.588-47.656-14.299-22.047-38.408-35.21-64.496-35.21-26.087 0-50.199 13.163-64.497 35.21-12.934 19.942-27.935 35.977-44.587 47.656-20.589 14.441-32.881 37.965-32.881 62.926 0 42.375 34.476 76.851 76.852 76.851h130.227c42.375 0 76.852-34.476 76.852-76.851C398.713 319.133 386.42 295.609 365.832 281.168zM321.861 408.944H191.635c-35.759 0-64.852-29.092-64.852-64.851 0-21.054 10.382-40.904 27.772-53.102 17.919-12.568 33.989-29.71 47.765-50.952 12.077-18.621 32.424-29.738 54.428-29.738 22.004 0 42.352 11.117 54.428 29.738 13.775 21.242 29.846 38.384 47.766 50.952 17.389 12.197 27.771 32.048 27.771 53.102C386.713 379.853 357.621 408.944 321.861 408.944zM150.899 228.737v-30.73c0-18.05-14.684-32.733-32.733-32.733-18.049 0-32.733 14.684-32.733 32.733v30.73c0 18.05 14.684 32.733 32.733 32.733C136.215 261.471 150.899 246.787 150.899 228.737zM97.433 228.737v-30.73c0-11.433 9.301-20.733 20.733-20.733 11.432 0 20.733 9.301 20.733 20.733v30.73c0 11.433-9.301 20.733-20.733 20.733h0C106.734 249.471 97.433 240.17 97.433 228.737zM393.834 165.273c-18.049 0-32.732 14.684-32.732 32.733v30.73c0 18.05 14.684 32.733 32.732 32.733s32.732-14.684 32.732-32.733v-30.73C426.566 179.957 411.883 165.273 393.834 165.273zM414.566 228.737c0 11.433-9.301 20.733-20.732 20.733l0 0c-11.432 0-20.732-9.301-20.732-20.733v-30.73c0-11.433 9.301-20.733 20.732-20.733s20.732 9.301 20.732 20.733V228.737zM205.107 187.253c18.049 0 32.733-14.684 32.733-32.733v-30.73c0-18.049-14.684-32.733-32.733-32.733s-32.733 14.685-32.733 32.733v30.73C172.374 172.569 187.058 187.253 205.107 187.253zM184.374 123.789c0-11.433 9.301-20.733 20.733-20.733s20.733 9.301 20.733 20.733v30.73c0 11.433-9.301 20.733-20.733 20.733s-20.733-9.301-20.733-20.733V123.789zM306.893 187.253c18.049 0 32.734-14.684 32.734-32.733v-30.73c0-18.049-14.686-32.733-32.734-32.733s-32.732 14.685-32.732 32.733v30.73C274.16 172.569 288.844 187.253 306.893 187.253zM286.16 123.789c0-11.433 9.301-20.733 20.732-20.733 11.434 0 20.734 9.301 20.734 20.733v30.73c0 11.433-9.301 20.733-20.734 20.733-11.432 0-20.732-9.301-20.732-20.733V123.789z">
	</path>
	<path
		d="M283.361,269.329h-54.723v26.54h-26.54v54.723h26.54v26.54h54.723v-26.54h26.541v-54.723h-26.541V269.329z 		 M297.902,307.869v30.723h-26.541v26.54h-30.723v-26.54h-26.54v-30.723h26.54v-26.54h30.723v26.54H297.902z">
	</path>
</svg>