<svg xmlns="http://www.w3.org/2000/svg" id="vaccination" viewBox="6 3 52 58">
    <path
        d="M57.5 3.134a1 1 0 0 0-1.366.366l-5.232 9.067-.872-.503a.999.999 0 0 0-1.365.366l-1.499 2.592-.005-.003a2.022 2.022 0 0 0-2.728.742l-1.207 2.097a4.985 4.985 0 0 0-4.892 2.462l-6.99 12.113a4.926 4.926 0 0 0-2.766-2.291l-2.577-.862V27c1.103 0 2-.897 2-2v-4c0-1.103-.897-2-2-2H12c-1.103 0-2 .897-2 2v4c0 1.103.897 2 2 2v2.28l-2.572.86A4.98 4.98 0 0 0 6 34.88V56c0 2.757 2.243 5 5 5h16c.894 0 1.771-.259 2.548-.719l.549.317a3.002 3.002 0 0 0 4.098-1.099 3.004 3.004 0 0 0-1.099-4.098l-.868-.501 2.999-5.197 2.601 1.502a2.98 2.98 0 0 0 2.276.299 2.978 2.978 0 0 0 1.821-1.397c.4-.694.507-1.502.3-2.277a2.983 2.983 0 0 0-.62-1.162l10.59-18.35a4.966 4.966 0 0 0-.311-5.456l1.209-2.1a2.006 2.006 0 0 0-.73-2.735l1.501-2.597a1.002 1.002 0 0 0-.367-1.366l-.864-.498L57.865 4.5a1 1 0 0 0-.366-1.366Zm-7.604 11.162 1.736 1.001-1 1.73-1.735-1.003.999-1.728Zm-3.727 2.46 5.194 3.005-1 1.736-.004-.003-5.188-2.999h-.003l1.001-1.739Zm-6.105 4.566a3 3 0 0 1 1.829-1.399 2.97 2.97 0 0 1 2.276.302l5.193 3.002a2.961 2.961 0 0 1 1.396 1.811c.21.775.104 1.586-.296 2.281l-.501.869-.866-.5a1 1 0 1 0-1 1.732l.866.5-1 1.732-.866-.5a1 1 0 0 0-1 1.732l.867.5-.999 1.732-.867-.5a1 1 0 0 0-1 1.732l.867.501-1 1.732-.868-.501a1 1 0 1 0-1 1.732l.868.501-.999 1.732-.868-.501a1 1 0 1 0-1 1.732l.868.501-1 1.732-10.396-6.002 10.495-18.186ZM26.427 38.709a2.98 2.98 0 0 0-1.821 1.398c-.4.694-.507 1.502-.3 2.276s.703 1.421 1.397 1.822l2.6 1.501-2.999 5.196-.868-.501a3.007 3.007 0 0 0-4.099 1.098 3.142 3.142 0 0 0-.225.501H8V38h20.13l-.385.666a2.968 2.968 0 0 0-1.318.043ZM12 21h14v4H12v-4Zm-1.942 11.038 3.26-1.09a1 1 0 0 0 .683-.948v-3h10v3a1 1 0 0 0 .683.948l3.265 1.091c1.194.393 2 1.485 2.044 2.735l-.707 1.225H8v-1.12c0-1.294.825-2.436 2.058-2.842ZM27 59H11c-1.654 0-3-1.346-3-3v-2h12.124c.23.649.671 1.227 1.313 1.598l5.834 3.368c-.091.009-.179.034-.271.034Zm5.463-.501a1.002 1.002 0 0 1-1.366.367l-8.66-5a1 1 0 0 1 1-1.732l1.728.998.005.005.01.004 5.164 2.982c.006.004.01.011.016.014.01.006.02.007.03.012l1.706.985a1 1 0 0 1 .366 1.365ZM30.496 53.9l-3.46-1.997 2.999-5.196 3.46 1.997-2.999 5.197Zm9.698-4.792a.994.994 0 0 1-.606.465.99.99 0 0 1-.759-.1l-12.125-7a1.001 1.001 0 0 1-.365-1.365.992.992 0 0 1 1.348-.373l.013.011c.009.005.019.005.028.009l12.088 6.978c.006.003.008.009.014.013l.009.004a.993.993 0 0 1 .355 1.358Z">
    </path>
    <path d="M22 44h-2v-2a1 1 0 1 0-2 0v2h-2a1 1 0 1 0 0 2h2v2a1 1 0 1 0 2 0v-2h2a1 1 0 1 0 0-2Z"></path>
</svg>