<svg xmlns="http://www.w3.org/2000/svg" height="403" viewBox="0 0 231 403" width="231"><g fill="none" fill-rule="evenodd" transform="matrix(.96592583 .25881905 -.25881905 .96592583 -75.931354 -71.000107)"><path d="m0 178.329747c3.46797138-2.131877 7.27434692-3.671564 11.233078-4.551447 12.4677724-.862904 24.9693246-.862904 37.437097 0 19.7421194 1.911928 39.7886899 2.368762 59.105963 8.679716 8.577035 2.84249 17.356747 4.991087 26.272012 6.463334 14.599364 2.317998 26.830245-4.551448 38.519783-11.962061 45.710979-29.643319 79.356512-69.13367 95.765692-121.7863165 4.550744-15.1937277 6.783674-31.2502726 10.454844-46.80090863.727434-3.09626668 2.639067-7.59686382 4.905864-8.23964539 3.569484-.52453401 7.189897.5244907 9.913501 2.87631757 9.033494 8.59525435 14.836255 20.01588885 16.477173 32.38423625 1.640961 11.302387 1.031929 22.841269-1.776297 33.9236202-.236848 2.6225402-.236848 5.244907 0 7.8675771 4.550744-1.5396871 9.405938-2.7747893 13.634907-4.5514479 4.22923-1.776572 8.272583-2.1826419 10.369962 1.7258079 1.759363 3.2147308 2.114614 7.0216522.947349 10.5071396-5.81965 12.1820968-12.501552 24.0090178-19.014554 35.8355058-1.590205 2.825553-3.721753 5.31291-6.411664 9.102896l11.87576-2.09805c.541343 0 .998106-.676783 1.539449-.778311 4.550744-.727548 10.04862-1.911929 12.687774 2.639476 2.639068 4.551448 0 8.409003-3.958557 11.691347-11.317528 10.050176-22.465723 20.371065-33.647699 30.556814-.676678.642955-1.268777 1.370502-2.503688 2.774789l5.548546.40607c2.994319.321477 6.03922-.40607 7.138795 4.145291 1.099619 4.551448 1.285711 6.920298-2.75747 9.288714-11.87576 6.920297-23.649747 13.958842-35.508618 20.912491-2.317639 1.319738-4.550743 2.504119-7.646357 4.009935 3.687886 3.77305 7.223677 7.647541 3.552551 12.960451-1.03193 1.573516-2.452976 2.84249-4.14465 3.671565-8.813926 3.637693-17.77986 7.055437-27.016467 10.64228 1.404114 5.498728-2.858982 8.544577-7.325016 10.777853h.016933c-5.396537 2.571776-10.979296 4.737698-16.697175 6.463333-2.909695.947496-3.857045 1.455095-2.960451 5.042197 6.32678 27.122004 8.424591 55.039254 6.242331 82.768955-1.776297 28.966319-10.589963 56.715516-18.693214 84.462542-.456763 1.641215-4.550743 3.096266-6.919226 2.825553-1.45487 0-3.857045-4.009935-3.451038-5.634301 1.860876-8.510358 4.550743-16.834899 6.868123-25.193225 9.693499-33.974735 14.734483-68.219746 10.184172-103.698344-1.640961-12.824878-4.178473-25.514616-6.631231-38.255032-.676679-2.165706-.422941-4.517663.693611-6.497118 1.133442-1.979586 3.011208-3.417744 5.210316-3.959171 5.81965-1.996521 11.77442-3.688457 17.458086-6.040154v-.016893c1.657851-1.099788 2.75747-2.859425 3.045031-4.822161 1.133442-5.905014 3.907801-8.375218 12.010879-10.371566 6.276111-1.590451 12.417103-3.637693 19.319006-5.735656-2.77436-2.233363-5.227205-3.36698-6.326781-5.279125l.01689.016892c-1.015039-1.945757-1.133442-4.24682-.355251-6.293975.795081-2.047285 2.436043-3.671565 4.483184-4.432767l37.098866-19.288212h.016934c1.234954-.778311 2.436042-1.675043 3.535661-2.639476-1.962346-.118421-3.924735-.389134-5.853431-.812139-5.95477-1.911929-6.868123-9.102896-1.505626-14.093983 8.644594-7.783114 17.509189-15.3293 26.238232-23.010627v-.016892c2.249951-1.742701 4.026248-4.026871 5.176536-6.632259-3.451082.81214-6.919226 1.455095-10.319292 2.368763-3.789399 1.861165-8.390812.524491-10.589962-3.096267-2.825116-4.551447-.50752-7.461723 1.590205-10.591602 9.99795-14.956799 20.09724-29.829136 30.196963-44.7521504l-1.776297-1.8273362c-5.633429 2.6901968-11.080636 5.7187635-16.324731 9.1028959-2.655958 2.1487702-6.445443 2.1487702-9.101487 0-3.231123-1.5904513-2.639068-3.7730499-2.233061-6.7340466h.01689c2.385286-13.535663 3.907802-27.2064661 4.533854-40.9283799 0-8.0031503-3.586374-16.1076556-6.03922-24.0090177-.642855-2.0980494-2.858982-3.722329-4.550743-5.6849785-2.68978 11.2854944-5.176536 21.9277742-7.73124 32.5193764-6.496113 27.3251468-18.388763 53.0771248-34.967275 75.765062-21.569259 29.47396-49.548017 53.653202-81.842358 70.705972-14.15936 7.850685-31.160986 8.747287-46.0661 2.419484-17.914979-6.750939-36.7944148-10.591603-55.9271988-11.369957-13.9224686-.727548-27.8791501-1.96265-41.8358315-2.588712-4.0431372 0-8.1370307 1.099789-12.18021118 1.049025l-.01688989-.016936c-2.90973877-.338413-5.8023278-.998261-8.59393259-1.945757z" fill="#090b0d"></path><path d="m223.888949 47.8551813c.642596.5068227 3.280555 3.9024356 2.823976 5.0850941-1.013472 2.5035551-2.004122 5.0175417-2.987075 7.5343659l-.980948 2.5174888c-8.271349 21.2620319-16.353282 42.5459109-33.352673 59.2789369-.930042.912272-2.063026 1.875187-3.280556 3.007073l-.00013.001341c-1.18372-1.047423-2.688695-1.723172-2.722548-2.550938h-.016926c-.03381-1.571111.338224-3.142223 1.099175-4.527628 6.865353-11.43692 14.492175-22.4854746 20.630257-34.2437277 5.039383-9.7139224 8.45496-20.2556106 12.598241-30.476399.507315-1.2332586.676405-2.8550567 1.640299-3.6321359.946968-.7771225 3.906225-2.5002506 4.548908-1.9934711zm-31.147377 17.7542788c.997703 1.8583212 3.314365 4.5444947 2.823976 5.4903274-4.548907 9.0889895-9.097815 18.1606798-14.05235 27.2496693-.59186 1.182572-2.671812 1.5880216-5.631156 3.2605062.253722-2.5003369.744154-4.9835478 1.454369-7.3993784 3.449646-8.3624239 7.00085-16.657381 10.856253-24.8338387.777877-1.6387081 3.043803-2.5509372 4.548908-3.7672858zm159.14047 164.9699169v.000216c-7.711108 9.342422-17.908056 16.319182-29.424047 20.120244-.856086.253406-1.936739-.291687-3.039638-.90112l-.441867-.245464c-.515777-.286318-1.030524-.56533-1.523679-.762423h.016926c.79476-1.368409 1.758654-2.635401 2.857829-3.767286 7.271413-5.355394 14.999101-10.170188 21.915536-15.930816 3.990771-3.361836 6.544142-3.463209 9.63894 1.486649zm-11.46781-34.81871c5.090032 4.088272 5.005184 4.544495.541124 9.08899v-.01691c-12.59824 13.227818-27.360545 24.192039-43.679557 32.419097-3.128391 1.267035-6.392193 2.196174-9.723355 2.77055l-.676405-1.824545z" fill="#ffd100"></path></g></svg>